<?xml version="1.0"?><svg version="1.1" id="圖層_1" xmlns="http://www.w3.org/2000/svg" x="0" y="0" viewBox="0 0 100 100" xml:space="preserve"><circle cx="50" cy="50" r="40" fill="#333"/><path d="M39.571 35.176H29.424A2.426 2.426 0 0 0 27 37.6v24.8a2.427 2.427 0 0 0 2.424 2.424h10.147a2.426 2.426 0 0 0 2.424-2.424V37.6a2.427 2.427 0 0 0-2.424-2.424zm.664 27.224a.665.665 0 0 1-.664.664H29.424a.665.665 0 0 1-.664-.664V48.003h11.475V62.4zM28.76 44.295h11.475v1.948H28.76v-1.948zm0-3.707h11.475v1.948H28.76v-1.948zm0-2.988c0-.366.298-.664.664-.664h10.147c.366 0 .664.298.664.664v1.229H28.76V37.6z" fill="#fff"/><path d="M34.497 56.736a3.397 3.397 0 0 0 3.393-3.393c0-1.871-1.522-3.393-3.393-3.393s-3.393 1.522-3.393 3.393a3.397 3.397 0 0 0 3.393 3.393zm0-5.028c.901 0 1.634.733 1.634 1.634 0 .901-.733 1.634-1.634 1.634a1.636 1.636 0 0 1-1.634-1.634c0-.901.733-1.634 1.634-1.634z" fill="#fff"/><path d="M70.694 35.176H45.453a2.308 2.308 0 0 0-2.306 2.306v18.78a2.308 2.308 0 0 0 2.306 2.306h8.212v2.98h-4.111a1.57 1.57 0 0 0-1.568 1.568 1.57 1.57 0 0 0 1.568 1.568h17.04a1.57 1.57 0 0 0 1.568-1.568 1.57 1.57 0 0 0-1.568-1.568h-4.111v-2.98h8.212a2.308 2.308 0 0 0 2.306-2.306v-18.78a2.31 2.31 0 0 0-2.307-2.306zm.546 21.085a.547.547 0 0 1-.546.546H45.451a.547.547 0 0 1-.546-.546v-18.78c0-.301.245-.546.546-.546h25.241c.301 0 .546.245.546.546v18.78zm-10.517 5.286h-5.299v-2.98h5.299v2.98z" fill="#fff"/><metadata xmlns:d="https://loading.io/stock/">
<d:name>computer</d:name>
<d:tags>computer,desktop,pc,monitor,screen,workstation,personal computer</d:tags>
<d:license>by</d:license>
<d:slug>yod90f</d:slug>
</metadata></svg>